# xmcd
#
# Track frame offsets: 
#        150
#        15926
#        47146
#        70303
#        101732
#        131236
#
# Disc length: 2153 seconds
#
# Revision: 0
# Processed by: cddbd v1.5.2PL0 Copyright (c) Steve Scherf et al.
# Submitted via: ExactAudioCopy v1.0b3
#
DISCID=4e086706
DTITLE=Joel Perry - Sonata To The Blues
DYEAR=2003
DGENRE=Blues
TTITLE0=Elizabeth Rides
TTITLE1=Blue Invention
TTITLE2='Til The Morning Comes
TTITLE3=Sonata, Opus 15
TTITLE4=Allegro Spiritoso
TTITLE5=Allegro Vivace
EXTD=
EXTT0=
EXTT1=
EXTT2=
EXTT3=
EXTT4=
EXTT5=
PLAYORDER=
